<svg width="72" height="72" viewBox="0 0 72 72" fill="none" xmlns="http://www.w3.org/2000/svg">
<g id="&#240;&#159;&#166;&#134; icon &#34;phone&#34;">
<path id="Vector" d="M35.9566 71.9132C55.8149 71.9132 71.9132 55.8149 71.9132 35.9566C71.9132 16.0983 55.8149 0 35.9566 0C16.0983 0 0 16.0983 0 35.9566C0 55.8149 16.0983 71.9132 35.9566 71.9132Z" fill="#536FB9"/>
<path id="Vector_2" opacity="0.2" d="M32.5859 28.4282C32.1364 23.0347 26.5182 20.4503 26.2935 20.338C25.9564 20.2256 25.7317 20.2256 25.5069 20.2256C18.9898 21.3492 18.0909 25.0573 17.9785 25.282V25.9562C25.7317 50.0022 41.7998 54.3844 47.0809 55.8451C47.5304 55.9575 47.8674 56.0698 48.0922 56.1822C48.2045 56.1822 48.3169 56.2946 48.4293 56.2946C48.654 56.2946 48.7664 56.2946 48.9911 56.1822C49.1035 56.0698 52.9238 54.272 53.9351 48.429C53.9351 48.2043 53.9351 47.8672 53.8228 47.6425C53.7104 47.5301 51.6878 43.7097 46.182 42.3614C45.8449 42.249 45.3954 42.3614 45.0583 42.5861C43.2605 44.0468 40.9009 45.6199 39.8896 45.8447C32.923 42.4737 28.9902 35.8442 28.8779 34.6082C28.7655 33.934 30.3386 31.462 32.2488 29.4395C32.4735 29.2147 32.5859 28.7653 32.5859 28.4282Z" fill="#231F20"/>
<path id="Vector_3" d="M32.5859 26.1809C32.1364 20.7874 26.5182 18.2031 26.2935 18.0907C25.9564 17.9783 25.7317 17.9783 25.5069 17.9783C18.9898 19.102 18.0909 22.81 17.9785 23.0347V23.7089C25.7317 47.7549 41.7998 52.1371 47.0809 53.5978C47.5304 53.7102 47.8674 53.8226 48.0922 53.9349C48.2045 53.9349 48.3169 54.0473 48.4293 54.0473C48.654 54.0473 48.7664 54.0473 48.9911 53.9349C49.1035 53.8226 52.9238 52.0247 53.9351 46.1818C53.9351 45.9571 53.9351 45.62 53.8228 45.3952C53.7104 45.2829 51.6878 41.4625 46.182 40.1141C45.8449 40.0018 45.3954 40.1141 45.0583 40.3389C43.2605 41.7996 40.9009 43.3727 39.8896 43.5974C32.923 40.2265 28.9902 33.597 28.8779 32.361C28.7655 31.6868 30.3386 29.2148 32.2488 27.1922C32.4735 26.9675 32.5859 26.518 32.5859 26.1809Z" fill="white"/>
</g>
</svg>
